<?xml version="1.0" encoding="iso-8859-1"?>
<!-- Generator: Adobe Illustrator 19.0.0, SVG Export Plug-In . SVG Version: 6.00 Build 0)  -->
<svg xmlns="http://www.w3.org/2000/svg" xmlns:xlink="http://www.w3.org/1999/xlink" version="1.1" id="Capa_1" x="0px" y="0px" viewBox="0 0 368 368" style="enable-background:new 0 0 368 368;" xml:space="preserve" width="512px" height="512px">
<g>
	<g>
		<path d="M344.4,128.8c-11.6-11.6-27.2-19.6-44.4-21.6c-2-28.4-14.8-54.4-33.6-73.2C245.2,12.8,216,0,184,0s-61.2,13.2-82.4,34    C82.4,53.2,70,78.8,68,107.2c-17.2,2-32.8,10-44.4,21.6C10,142.4,1.2,161.6,1.2,182.4s8.4,40,22.4,53.6    c13.6,14,32.8,22.4,53.6,22.4h213.6c20.8,0,40-8.4,53.6-22.4c13.6-13.6,22.4-32.8,22.4-53.6C366.8,161.6,358.4,142.4,344.4,128.8z     M330.8,222.4c-10.4,10.4-24.4,16.8-40,16.8H77.2c-15.6,0-30-6.4-40-16.8c-10.4-10.4-16.8-24.4-16.8-40c0-15.6,6.4-29.6,16.8-40    c10.4-10.4,24.4-16.8,40-16.8c5.2,0,9.6-4.4,9.6-9.6c0-26.8,10.8-51.2,28.4-68.8c17.6-17.6,42-28.4,68.8-28.4s51.2,10.8,68.8,28.4    c17.6,17.6,28.4,42,28.4,68.8c0,5.2,4.4,9.6,9.6,9.6c15.6,0,30,6.4,40,16.8c10.4,10.4,16.8,24.4,16.8,40    C347.6,198,341.2,212.4,330.8,222.4z" fill="#FFDA44"/>
	</g>
</g>
<g>
	<g>
		<path d="M125.6,334c0-1.2-0.4-2.4-0.8-3.6V330c-2.4-9.6-8.4-16.8-14-24c-3.2-3.6-6-7.6-8.4-11.2c-2-3.6-6.4-4.8-10-2.8    c-1.2,0.8-2,1.6-2.8,2.8c-2.4,4-5.2,7.6-8.4,11.2c-6,7.2-12,14.4-14.4,24.4c-0.4,1.2-0.4,2.4-0.8,3.6c0,1.2-0.4,2.4-0.4,3.6v0.4    c0,8.4,3.2,15.6,8.8,21.2c5.6,5.6,12.8,8.8,21.2,8.8c8.8,0,16.4-3.2,21.6-8.8c5.6-5.6,8.8-12.8,8.8-21.2c0-0.4,0-0.8,0-0.8    C126,336,126,335.2,125.6,334z" fill="#FFDA44"/>
	</g>
</g>
<g>
	<g>
		<path d="M213.6,334c0-1.2-0.4-2.4-0.8-3.6V330c-2.4-9.6-8.4-16.8-14-24c-3.2-3.6-6-7.6-8.4-11.2c-2-3.6-6.4-4.8-10-2.8    c-1.2,0.8-2,1.6-2.8,2.8c-2.4,4-5.2,7.6-8.4,11.2c-6,7.2-12,14.4-14.4,24.4c-0.4,1.2-0.4,2.4-0.8,3.6c0,1.2-0.4,2.4-0.4,3.6v0.4    c0,8.4,3.2,15.6,8.8,21.2c6,5.6,13.2,8.8,21.6,8.8c8.4,0,15.6-3.2,21.2-8.8c5.6-5.6,8.8-12.8,8.8-21.2c0-0.4,0-0.8,0-0.8    C214,336,214,335.2,213.6,334z" fill="#FFDA44"/>
	</g>
</g>
<g>
	<g>
		<path d="M301.2,334c0-1.2-0.4-2.4-0.8-3.6V330c-2.4-9.6-8.4-16.8-14-24c-3.2-3.6-6-7.6-8.4-11.2c-2-3.6-6.4-4.8-10-2.8    c-1.2,0.8-2,1.6-2.8,2.8c-2.4,4-5.2,7.6-8.4,11.2c-6,7.2-12,14.4-14.4,24.4c-0.4,1.2-0.4,2.4-0.8,3.6c0,1.2-0.4,2.4-0.4,3.6v0.4    c0,8.4,3.2,15.6,8.8,21.2c5.6,5.6,12.8,8.8,21.2,8.8c8.8,0,16.4-3.2,21.6-8.8c5.6-5.6,8.8-12.8,8.8-21.2c0-0.4,0-0.8,0-0.8    C301.6,336,301.6,335.2,301.2,334z" fill="#FFDA44"/>
	</g>
</g>
<g>
</g>
<g>
</g>
<g>
</g>
<g>
</g>
<g>
</g>
<g>
</g>
<g>
</g>
<g>
</g>
<g>
</g>
<g>
</g>
<g>
</g>
<g>
</g>
<g>
</g>
<g>
</g>
<g>
</g>
</svg>
