<?xml version="1.0" encoding="iso-8859-1"?>
<!-- Generator: Adobe Illustrator 21.1.0, SVG Export Plug-In . SVG Version: 6.00 Build 0)  -->
<svg xmlns="http://www.w3.org/2000/svg" xmlns:xlink="http://www.w3.org/1999/xlink" version="1.1" id="Layer_1" x="0px" y="0px" viewBox="0 0 16 16" style="enable-background:new 0 0 16 16;" xml:space="preserve" width="23px" height="23px">
<path style="fill:none;stroke:#000000;stroke-miterlimit:10;" d="M3.5,13.5h8c1.105,0,2-0.895,2-2v-8c0-1.105-0.895-2-2-2h-8  c-1.105,0-2,0.895-2,2v8C1.5,12.605,2.395,13.5,3.5,13.5z"/>
<path id="f_1_" d="M9.904,13.091V8.966h1.397l0.209-1.608H9.904V6.332c0-0.466,0.131-0.783,0.804-0.783l0.858-0.001V4.11  c-0.149-0.02-0.658-0.063-1.251-0.063c-1.238,0-2.085,0.749-2.085,2.125v1.186L7,7.354v1.608l1.23,0.004v4.126H9.904z"/>
</svg>
