<?xml version="1.0" encoding="iso-8859-1"?>
<!-- Generator: Adobe Illustrator 21.1.0, SVG Export Plug-In . SVG Version: 6.00 Build 0)  -->
<svg xmlns="http://www.w3.org/2000/svg" xmlns:xlink="http://www.w3.org/1999/xlink" version="1.1" id="Layer_1" x="0px" y="0px" viewBox="0 0 50 50" style="enable-background:new 0 0 50 50;" xml:space="preserve" width="23px" height="23px">
<path style="fill:none;stroke:#000000;stroke-width:2;stroke-linecap:round;stroke-linejoin:round;stroke-miterlimit:10;" d="M38,13  c-0.55,0-1-0.45-1-1V9c0-0.55,0.45-1,1-1h3c0.55,0,1,0.45,1,1v3c0,0.55-0.45,1-1,1H38z"/>
<path style="fill:none;stroke:#000000;stroke-width:2;stroke-linecap:round;stroke-linejoin:round;stroke-miterlimit:10;" d="M25,13  c-6.616,0-12,5.384-12,12s5.384,12,12,12s12-5.384,12-12S31.616,13,25,13L25,13z"/>
<path style="fill:none;stroke:#000000;stroke-width:2;stroke-linecap:round;stroke-linejoin:round;stroke-miterlimit:10;" d="M12,46  h26c4.418,0,8-3.582,8-8V12c0-4.418-3.582-8-8-8H12c-4.418,0-8,3.582-8,8v26C4,42.418,7.582,46,12,46z"/>
<path style="fill:none;stroke:#000000;stroke-width:2;stroke-linecap:round;stroke-linejoin:round;stroke-miterlimit:10;" d="M34,17  h8v20c0,2.761-2.239,5-5,5l-24,0c-2.761,0-5-2.239-5-5V17h8"/>
<path style="fill:none;stroke:#000000;stroke-width:2;stroke-linecap:round;stroke-linejoin:round;stroke-miterlimit:10;" d="M25,17  c4.418,0,8,3.581,8,8s-3.582,8-8,8s-8-3.581-8-8S20.582,17,25,17"/>
</svg>
