<?xml version="1.0"?>
<svg xmlns="http://www.w3.org/2000/svg" xmlns:xlink="http://www.w3.org/1999/xlink" version="1.1" viewBox="0 0 315 315" width="23px" height="23px"><g fill="none" fill-rule="nonzero" stroke="none" stroke-width="1" stroke-linecap="butt" stroke-linejoin="miter" stroke-miterlimit="10" stroke-dasharray="" stroke-dashoffset="0" font-family="none" font-weight="none" font-size="none" text-anchor="none" style="mix-blend-mode: normal"><path d="M0,252v-252h252v252z" fill="#ffffff"/><g fill="#000000"><g id="surface1"><path d="M215.57813,34.45313c-37.67695,0 -68.31563,30.63867 -68.31563,68.31563c0,2.26406 0.56602,4.47891 0.7875,6.69375c-46.58555,-4.4543 -87.78164,-26.89805 -115.7625,-61.22812c-1.3043,-1.64883 -3.32227,-2.53477 -5.43867,-2.38711c-2.0918,0.14765 -3.96211,1.35352 -4.9957,3.17461c-5.88164,10.11445 -9.25312,21.75469 -9.25312,34.25625c0,15.13477 5.41406,28.98985 13.78125,40.35938c-1.62422,-0.71367 -3.39609,-1.10742 -4.92187,-1.96875c-1.94414,-1.03359 -4.28203,-0.98437 -6.17695,0.14766c-1.89492,1.13203 -3.05156,3.17461 -3.07617,5.36484v0.7875c0,23.20664 12.00938,43.36172 29.72813,55.71562c-0.19687,-0.02461 -0.39375,0.04922 -0.59062,0c-2.16562,-0.36914 -4.35586,0.39375 -5.80781,2.04258c-1.45195,1.64883 -1.91953,3.9375 -1.27969,6.0293c7.03828,21.87773 25.00312,38.5875 47.25,44.69063c-17.71875,10.53281 -38.26758,16.73438 -60.44062,16.73438c-4.79883,0 -9.40078,-0.24609 -13.97813,-0.7875c-2.95312,-0.39375 -5.7832,1.32891 -6.76758,4.13438c-1.00898,2.80547 0.09844,5.93086 2.6332,7.48125c28.42383,18.23555 62.16328,28.94063 98.4375,28.94063c58.7918,0 104.90977,-24.56015 135.84375,-59.65312c30.93398,-35.09297 47.05312,-80.66953 47.05312,-123.24375c0,-1.79648 -0.14765,-3.54375 -0.19687,-5.31562c11.5418,-8.83477 21.85312,-19.19531 29.925,-31.30312c1.59961,-2.33789 1.42735,-5.46328 -0.41836,-7.6289c-1.8211,-2.16562 -4.89727,-2.83008 -7.45664,-1.62422c-3.24844,1.45195 -7.03828,1.59961 -10.43437,2.75625c4.47891,-5.98008 8.31797,-12.42773 10.63125,-19.6875c0.7875,-2.48555 -0.07383,-5.21719 -2.1164,-6.8414c-2.04258,-1.59961 -4.89727,-1.79649 -7.13672,-0.44297c-10.7543,6.37383 -22.66523,10.85273 -35.24062,13.58438c-12.20625,-11.41875 -28.27617,-19.09687 -46.26562,-19.09687zM215.57813,47.05313c16.06992,0 30.58945,6.86602 40.75313,17.71875c1.52578,1.575 3.76523,2.23945 5.90625,1.77188c8.21953,-1.62422 16.0207,-4.01133 23.625,-7.0875c-4.38047,5.90625 -9.79453,10.95117 -16.14375,14.76563c-2.8793,1.40273 -4.23281,4.725 -3.17461,7.75195c1.03359,3.00234 4.18359,4.74961 7.30898,4.06055c6.3,-0.76289 11.91094,-3.32227 17.91563,-4.92187c-5.38945,5.83242 -11.2957,11.09883 -17.71875,15.75c-1.74727,1.27969 -2.70703,3.34687 -2.55938,5.5125c0.09844,2.55938 0.19688,5.09414 0.19688,7.67812c0,39.375 -15.11015,82.12148 -43.90313,114.77812c-28.79297,32.65664 -71.07187,55.51875 -126.39375,55.51875c-25.12617,0 -48.84961,-5.56172 -70.28437,-15.35625c26.57812,-2.04258 51.08906,-11.44336 70.875,-26.97187c2.06719,-1.64883 2.8793,-4.40508 2.04258,-6.91523c-0.83672,-2.51016 -3.15,-4.23281 -5.7832,-4.30664c-20.77031,-0.36914 -38.16914,-12.45234 -47.44687,-29.53125c0.34453,0 0.63985,0 0.98438,0c6.22617,0 12.37852,-0.7875 18.1125,-2.3625c2.75625,-0.81211 4.65117,-3.37148 4.55273,-6.25078c-0.09844,-2.8793 -2.14101,-5.34024 -4.94648,-5.95547c-22.41914,-4.52812 -39.22734,-22.78828 -43.11563,-45.47813c6.34922,2.19023 12.8461,3.91289 19.88438,4.13438c2.8793,0.17227 5.48789,-1.62422 6.37383,-4.35586c0.88594,-2.73164 -0.19687,-5.73398 -2.6332,-7.25977c-14.9625,-10.01602 -24.80625,-27.07031 -24.80625,-46.4625c0,-7.18594 1.87031,-13.78125 4.33125,-20.08125c31.5,34.57617 75.6,57.53672 125.40937,60.04687c1.96875,0.09844 3.88828,-0.71367 5.16797,-2.21484c1.27969,-1.52578 1.77187,-3.54375 1.3289,-5.46328c-0.95977,-4.08515 -1.575,-8.4164 -1.575,-12.79687c0,-30.86015 24.85547,-55.71562 55.71563,-55.71562z"/></g></g></g></svg>
